# xmcd CD database file
#
# Track frame offsets:
#	150
#	5170
#	20622
#	34087
#	53050
#	75375
#	91285
#	105627
#	124680
#	138067
#	158205
#	170700
#
# Disc length: 2583 seconds
#
# Revision: 6
# Processed by: cddbd v1.5.2PL0 Copyright (c) Steve Scherf et al.
# Submitted via: CDex 1.51
#
DISCID=8f0a150c
DTITLE=R.L. Burnside - Come On In
DYEAR=1998
DGENRE=Blues
TTITLE0=Been Mistreated
TTITLE1=Come On In (Live)
TTITLE2=Let My Baby Ride
TTITLE3=Don't Stop Honey (featuring Mr. Cedric Burnside)
TTITLE4=It's Bad You Know
TTITLE5=Just Like A Woman
TTITLE6=Come On In (Part 2)
TTITLE7=Rollin' Tumblin (Remix)
TTITLE8=Please Don't Stay
TTITLE9=Shuck Dub
TTITLE10=Come On In (Part 3)
TTITLE11=Heat
EXTD=Recorded at:\nThe Money Shot, Oxford, MS\nStudio 5 and studio 64, Atwater, CA\n\nMixed at:\nStudio 5 and Studio 64, Atwater, CA\n\nMasteredby Don C. Tyler @ Precision Mastering YEAR: 1998
EXTT0=
EXTT1=
EXTT2=
EXTT3=
EXTT4=
EXTT5=
EXTT6=
EXTT7=
EXTT8=
EXTT9=
EXTT10=
EXTT11=
PLAYORDER=
